<svg width="56" height="56" viewBox="0 0 56 56" fill="none" xmlns="http://www.w3.org/2000/svg">
<path fill-rule="evenodd" clip-rule="evenodd" d="M11.0788 0.232379C10.8437 0.84431 11.1147 12.8706 11.3844 13.8181C12.6609 18.3008 16.4282 21.5124 20.9504 21.973L22.0277 22.0824V17.2564C22.0277 10.5598 21.615 11.0246 27.5638 11.0246C31.9993 11.0246 32.022 11.0288 32.7566 11.898C33.3153 12.5583 33.0245 9.17507 32.3725 7.43319C30.8448 3.34946 27.644 0.758772 23.4125 0.181534C21.4367 -0.0882417 11.1852 -0.045772 11.0788 0.232379ZM41.2237 11.5139C37.8177 12.4291 34.9441 15.106 33.7747 18.4527C33.3936 19.5432 33.009 21.6781 33.1496 21.9185C33.1884 21.9843 35.3413 22.0382 37.9344 22.0382C44.4473 22.0382 44.1087 21.766 44.1865 27.0664C44.2505 31.3769 44.193 31.8285 43.498 32.5236L42.9698 33.0523H44.1595C48.3521 33.0523 52.1834 30.613 54.0001 26.7865C54.9901 24.7018 55.069 23.9984 55.069 17.2301V11.1843L48.7242 11.1939C42.9608 11.2029 42.2735 11.2322 41.2237 11.5139ZM8.85895 22.3582C5.24658 23.0389 1.85674 25.9449 0.686709 29.364C0.0508509 31.2231 0.0119693 31.7178 0.00598757 37.9604L0 44.0659H6.27185C13.8471 44.0659 14.4537 43.9618 17.1119 42.205C19.8181 40.4159 22.0026 36.5421 22.0253 33.4914C22.0277 33.2312 21.6975 33.2121 17.3111 33.2121C10.5715 33.2121 11.0142 33.6069 11.0142 27.5874V23.2836L11.5567 22.741L12.0993 22.1979L10.7982 22.2182C10.0828 22.229 9.21008 22.2924 8.85895 22.3582ZM33.1478 33.3185C33.0892 33.3766 33.0413 35.5784 33.0413 38.2116V42.9982C33.0716 43.9734 32.8715 44.2925 31.751 44.2256H27.6769C23.3946 44.2256 23.2701 44.2071 22.4668 43.4582L22.0277 43.0484V43.9804C22.0277 48.0264 24.4156 52.0228 27.9407 53.8754C30.1766 55.0502 30.4141 55.0795 37.6299 55.0795H44.0549V49.0858C44.0549 40.2585 43.1666 37.7271 39.1397 35.076C37.2219 33.8138 33.6885 32.7772 33.1478 33.3185Z" fill="url(#paint0_radial_88_488)"/>
<defs>
<radialGradient id="paint0_radial_88_488" cx="0" cy="0" r="1" gradientUnits="userSpaceOnUse" gradientTransform="translate(27.5345 27.5397) rotate(90) scale(27.5397 27.5345)">
<stop stop-color="#2269F5"/>
<stop offset="1" stop-color="#6A9AFA"/>
</radialGradient>
</defs>
</svg>
